<?xml version="1.0" encoding="UTF-8" standalone="no"?>
<!-- Created with Inkscape (http://www.inkscape.org/) -->

<svg
   xmlns:dc="http://purl.org/dc/elements/1.1/"
   xmlns:cc="http://creativecommons.org/ns#"
   xmlns:rdf="http://www.w3.org/1999/02/22-rdf-syntax-ns#"
   xmlns:svg="http://www.w3.org/2000/svg"
   xmlns="http://www.w3.org/2000/svg"
   xmlns:sodipodi="http://sodipodi.sourceforge.net/DTD/sodipodi-0.dtd"
   xmlns:inkscape="http://www.inkscape.org/namespaces/inkscape"
   width="58.83168mm"
   height="54.065369mm"
   viewBox="0 0 58.83168 54.065369"
   version="1.1"
   id="svg8"
   inkscape:version="0.92.5 (2060ec1f9f, 2020-04-08)"
   sodipodi:docname="icon.svg">
  <defs
     id="defs2" />
  <sodipodi:namedview
     id="base"
     pagecolor="#ffffff"
     bordercolor="#666666"
     borderopacity="1.0"
     inkscape:pageopacity="0.0"
     inkscape:pageshadow="2"
     inkscape:zoom="2.8284271"
     inkscape:cx="46.144631"
     inkscape:cy="155.02734"
     inkscape:document-units="mm"
     inkscape:current-layer="layer1"
     showgrid="false"
     inkscape:window-width="2508"
     inkscape:window-height="1376"
     inkscape:window-x="52"
     inkscape:window-y="27"
     inkscape:window-maximized="1"
     fit-margin-top="3"
     fit-margin-left="3"
     fit-margin-bottom="3"
     fit-margin-right="3" />
  <metadata
     id="metadata5">
    <rdf:RDF>
      <cc:Work
         rdf:about="">
        <dc:format>image/svg+xml</dc:format>
        <dc:type
           rdf:resource="http://purl.org/dc/dcmitype/StillImage" />
        <dc:title></dc:title>
      </cc:Work>
    </rdf:RDF>
  </metadata>
  <g
     inkscape:label="Layer 1"
     inkscape:groupmode="layer"
     id="layer1"
     transform="translate(-0.89294795,-243.01295)">
    <path
       style="fill:#aaaaaa;stroke-width:0.26458335;fill-opacity:1"
       d="m 7.042759,293.81655 c -0.416506,-0.21497 -0.876126,-0.90322 -1.282779,-1.92087 -0.348542,-0.87222 -0.94873,-2.20739 -1.333751,-2.96703 -0.643788,-1.27019 -0.665777,-1.41544 -0.273655,-1.80756 0.259093,-0.25909 1.786542,-0.67736 3.893115,-1.06605 2.006475,-0.37023 4.110897,-0.93877 4.996017,-1.34976 1.226163,-0.56933 1.909503,-0.70821 3.447516,-0.70064 1.368472,0.007 1.918229,-0.0858 1.918229,-0.323 0,-0.6826 -2.784842,-5.25509 -3.698003,-6.07182 -1.741772,-1.55786 -2.045855,-4.09106 -0.833427,-6.94299 0.41813,-0.98354 1.121287,-2.85983 1.562571,-4.16951 3.118561,-9.25559 4.376529,-11.69398 6.278933,-12.17084 0.580553,-0.14552 1.177912,-0.34455 1.327465,-0.44228 0.387811,-0.25345 0.255516,-2.00407 -0.253944,-3.36038 -0.531247,-1.41431 -0.259663,-2.48691 0.914522,-3.61185 0.577693,-0.55347 1.114687,-0.78231 2.012281,-0.85754 1.702554,-0.14269 2.374707,0.0801 3.43255,1.13799 0.771883,0.77188 1.102686,0.91635 2.098162,0.91635 1.005417,0 1.181807,0.079 1.181807,0.52917 0,0.29104 -0.123884,0.52917 -0.275297,0.52917 -0.151413,0 -0.657428,0.26749 -1.124479,0.59442 -0.46705,0.32693 -0.904208,0.63 -0.97146,0.67349 -0.06725,0.0435 0.02888,0.32111 0.21363,0.61694 0.229089,0.36683 0.251082,0.64007 0.06916,0.85927 -0.146709,0.17677 -0.309415,0.73736 -0.361569,1.24575 -0.13039,1.271 -0.367297,1.56638 -1.2563,1.56638 -0.562555,0 -0.950817,0.24405 -1.468935,0.92334 -0.662546,0.86864 -0.727737,1.72249 -0.131511,1.72249 0.445325,0 1.073369,1.50026 1.07442,2.56655 5.29e-4,0.55293 0.224848,1.37243 0.498456,1.82112 0.273609,0.44869 0.580279,1.19283 0.681493,1.65365 l 0.184023,0.83785 h 2.721422 c 2.352789,0 2.815876,0.0743 3.418745,0.54851 0.737095,0.5798 0.747347,1.19977 0.0428,2.58866 l -0.316355,0.62363 -0.568621,-0.88821 c -0.312743,-0.48852 -0.57063,-0.73156 -0.57308,-0.54009 -0.0098,0.76145 0.567375,1.3178 2.032865,1.95969 1.202458,0.52668 1.878106,0.65459 3.122052,0.59109 0.873125,-0.0446 1.617266,-0.10487 1.653646,-0.13399 0.03638,-0.0291 0.214974,-0.0755 0.396875,-0.10317 0.684607,-0.10399 0.748043,0.19281 0.172215,0.80575 -0.682681,0.72668 -0.17884,0.90114 0.590846,0.20458 0.268507,-0.243 0.665943,-0.35531 0.916744,-0.25907 0.410205,0.15741 0.41093,0.20506 0.0099,0.64824 -0.581602,0.64266 -0.545589,0.90497 0.09628,0.70125 0.814615,-0.25855 0.626663,0.2923 -0.219298,0.6427 -1.53916,0.63754 -3.451084,0.4474 -7.277743,-0.72378 -5.846416,-1.78936 -7.792204,-2.61389 -8.24788,-3.49507 -0.313695,-0.60662 -0.629912,-0.79233 -1.595788,-0.93717 -0.662513,-0.0994 -1.236207,-0.13653 -1.274875,-0.0826 -0.03867,0.0539 -0.510122,0.71024 -1.047676,1.45851 -0.906089,1.26128 -1.906188,3.2381 -1.717344,3.39455 0.0449,0.0372 1.093676,0.36591 2.330603,0.73047 3.282781,0.96751 7.756803,2.74592 9.182243,3.64991 0.682059,0.43255 1.376281,0.78645 1.542714,0.78645 0.166431,0 0.444942,0.3124 0.618908,0.69421 0.253884,0.55722 0.235437,0.9724 -0.09348,2.10384 -0.446955,1.53747 -0.687557,1.96486 -3.464094,6.15341 -1.864472,2.81265 -2.087992,3.22427 -2.505089,4.61326 -0.208478,0.69424 -0.141536,0.77164 1.284325,1.48499 0.827347,0.41391 1.950752,0.89723 2.496455,1.07403 1.937128,0.62762 1.040106,0.82317 -3.439584,0.74985 l -4.431784,-0.0725 0.05096,-0.73598 c 0.02803,-0.40479 0.429719,-1.53589 0.892649,-2.51354 1.370562,-2.89449 2.307674,-5.40197 2.494147,-6.67373 l 0.174779,-1.192 -2.69473,-0.87405 c -1.482102,-0.48073 -2.753273,-0.81551 -2.824824,-0.74396 -0.148248,0.14825 0.336808,1.84048 0.795358,2.7748 0.268155,0.54638 0.219871,0.69594 -0.384384,1.19063 -0.380084,0.31116 -0.767549,0.81794 -0.861033,1.12617 -0.343973,1.13412 -1.114916,1.50805 -3.536389,1.71528 -5.692392,0.48713 -9.571354,1.01112 -10.309059,1.3926 -0.949065,0.49079 -1.127681,0.87982 -1.127681,2.45615 0,1.36345 0.366714,2.20992 0.957399,2.20992 0.225288,0 0.360758,0.14883 0.301044,0.33073 -0.150451,0.45831 -1.521073,0.53759 -2.304385,0.1333 z m 39.942915,-23.03469 c -2.417331,-0.82723 -0.415483,-2.12442 4.009747,-2.5983 4.562851,-0.48862 7.287448,0.57494 4.766956,1.8608 -1.955107,0.99742 -6.822075,1.40639 -8.776703,0.7375 z"
       id="path826"
       inkscape:connector-curvature="0" />
    <path
       style="fill:#a00000;fill-opacity:1;stroke-width:0.26458338"
       d="m 13.876021,270.66683 c 0.41813,-0.98354 1.121287,-2.85983 1.562571,-4.16951 3.118561,-9.25559 4.376529,-11.69398 6.278933,-12.17084 0.640741,1.11348 3.32077,2.02738 5.053311,1.99349 -0.131017,0.6206 -0.243455,1.04922 0.352771,1.04922 0.445325,0 1.073369,1.50026 1.07442,2.56655 5.29e-4,0.55293 0.224848,1.37243 0.498456,1.82112 0.273609,0.44869 0.580279,1.19283 0.681493,1.65365 l 0.184023,0.83785 c 1.292951,0.84991 0.86583,2.01711 6.757778,4.29219 0.0252,1.13136 -0.685525,0.9322 -0.538482,2.3736 -5.846417,-1.78936 -7.792205,-2.61389 -8.247881,-3.49507 -0.313695,-0.60662 -0.629912,-0.79233 -1.595788,-0.93717 -0.662513,-0.0994 -1.236207,-0.13653 -1.274875,-0.0826 -0.03867,0.0539 -0.510122,0.71024 -1.047676,1.45851 -0.906089,1.26128 -1.505284,2.36947 -1.717344,3.39455 -1.459902,1.85665 -8.043762,0.6763 -8.02171,-0.58554 z"
       id="path826-3"
       inkscape:connector-curvature="0"
       sodipodi:nodetypes="ccccsccccccsccccc" />
    <path
       style="fill:#a00000;fill-opacity:1;stroke-width:0.26458341"
       d="m 22.789724,250.52116 c -0.531248,-1.41431 -0.259664,-2.48691 0.914522,-3.61185 0.577692,-0.55347 1.114686,-0.78231 2.01228,-0.85754 1.702554,-0.14269 2.374707,0.0801 3.43255,1.13799 0.771883,0.77188 1.102686,0.91635 2.098162,0.91635 1.005418,0 1.181808,0.079 1.181808,0.52917 0,0.29104 -0.123885,0.52917 -0.275299,0.52917 -0.151413,0 -0.657426,0.26749 -1.124478,0.59442 -4.235333,-0.18057 -5.966602,-0.0892 -8.239545,0.76229 z"
       id="path826-3-6"
       inkscape:connector-curvature="0"
       sodipodi:nodetypes="ccccssscc" />
    <path
       style="fill:#a00000;fill-opacity:1;stroke-width:0.26458338"
       d="m 7.0427596,293.81655 c -0.416506,-0.21497 -0.876126,-0.90322 -1.282779,-1.92087 -0.348542,-0.87222 -0.9487301,-2.20739 -1.3337511,-2.96703 -0.643788,-1.27019 -0.665777,-1.41544 -0.273655,-1.80756 0.259093,-0.25909 1.7865421,-0.67736 3.893115,-1.06605 0.9307157,-0.18314 1.319376,-0.24665 2.3974315,-0.54656 0.300922,0.79458 1.422981,1.59847 0.766884,2.73037 -0.742198,0.10449 -1.162333,0.17144 -1.9935826,0.44766 -0.9490651,0.49079 -1.1276811,0.87982 -1.1276811,2.45615 0,1.36345 0.3667141,2.20992 0.957399,2.20992 0.225288,0 0.3607581,0.14883 0.301044,0.33073 -0.1504511,0.45831 -1.5210729,0.53759 -2.3043851,0.1333 z"
       id="path826-7"
       inkscape:connector-curvature="0"
       sodipodi:nodetypes="ccccccccssccc" />
    <path
       style="fill:#a00000;fill-opacity:1;stroke-width:0.26458341"
       d="m 30.262352,288.11394 c -0.252588,0.52226 -0.389462,0.74557 -0.752816,1.86998 -0.208478,0.69424 -0.141536,0.77164 1.284327,1.48499 0.827347,0.41391 1.950752,0.89723 2.496455,1.07403 1.937126,0.62762 1.040106,0.82317 -3.439586,0.74985 l -4.431784,-0.0725 0.05096,-0.73598 c 0.02803,-0.40479 0.429719,-1.53589 0.892649,-2.51354 0.575435,-1.24577 0.508341,-1.10314 1.058723,-2.36391 1.026939,0.12883 2.032347,0.0545 2.841072,0.50708 z"
       id="path826-7-5"
       inkscape:connector-curvature="0"
       sodipodi:nodetypes="cccccccccc" />
  </g>
</svg>
